<?xml version="1.0" encoding="UTF-8"?>
<!DOCTYPE svg PUBLIC "-//W3C//DTD SVG 1.1//EN"
  "http://www.w3.org/Graphics/SVG/1.1/DTD/svg11.dtd">
<!-- Created with Inkpad (http://www.taptrix.com/) --><svg xmlns:inkpad="http://taptrix.com/inkpad/svg_extensions" height="41pt" xmlns:xlink="http://www.w3.org/1999/xlink" xmlns="http://www.w3.org/2000/svg" width="125pt" version="1.1" viewBox="0,0,125,41">
<defs/>
<g id="Untitled" inkpad:layerName="Untitled">
<g opacity="1">
<path d="M54.4242+31.6162L54.4242+36.5404L57.9596+36.5404L57.9596+35.6566L55.4343+35.6566L55.4343+31.6162L54.4242+31.6162L54.4242+31.6162ZM65.0303+31.6162C63.2626+31.6162+62.505+32.8788+62.505+34.2677C62.505+35.5303+63.2626+36.7929+65.0303+36.7929C66.798+36.7929+67.5555+35.5303+67.5555+34.2677C67.5555+32.8788+66.6717+31.6162+65.0303+31.6162L65.0303+31.6162ZM65.0303+32.3737C66.1667+32.3737+66.6717+33.2576+66.6717+34.1414C66.6717+34.899+66.1667+35.7828+65.0303+35.7828C63.8939+35.7828+63.3889+34.899+63.3889+34.1414C63.3889+33.3838+63.7677+32.3737+65.0303+32.3737L65.0303+32.3737ZM76.6465+32.2475C76.1414+31.7424+75.5101+31.4899+74.7525+31.4899C72.9849+31.4899+72.101+32.7525+72.101+34.1414C72.101+35.4041+72.8586+36.6667+74.7525+36.6667C75.6364+36.6667+76.2677+36.2879+76.7727+35.7828L76.7727+33.6364L74.6263+33.6364L74.6263+34.5202L75.8889+34.5202L75.8889+35.4041C75.5101+35.6566+75.1313+35.7828+74.7525+35.7828C73.4899+35.7828+72.9848+34.899+72.9848+34.1414C72.9848+33.1313+73.6162+32.3738+74.7525+32.3738C75.1313+32.3738+75.6364+32.5+76.0152+32.8788L76.6465+32.2475L76.6465+32.2475ZM82.7071+36.6667L82.7071+31.7424L81.8232+31.7424L81.8232+36.6667L82.7071+36.6667L82.7071+36.6667ZM91.6717+32.5C91.2929+31.7424+90.5354+31.4899+89.7778+31.4899C88.8939+31.4899+87.8838+31.8687+87.8838+32.8788C87.8838+34.0151+88.7677+34.2677+89.7778+34.3939C90.4091+34.5202+90.9141+34.6465+90.9141+35.1515C90.9141+35.6566+90.4091+35.9091+89.7778+35.9091C89.1465+35.9091+88.6414+35.6566+88.3889+35.1515L87.6313+35.5303C88.0101+36.4141+88.7677+36.7929+89.7778+36.7929C90.9141+36.7929+91.9242+36.2879+91.9242+35.1515C91.9242+34.0151+90.9141+33.6364+89.904+33.5101C89.2727+33.3838+88.7677+33.2576+88.7677+32.8788C88.7677+32.5+89.1465+32.2475+89.7778+32.2475C90.2828+32.2475+90.7879+32.5+90.9141+32.7525L91.6717+32.5L91.6717+32.5ZM97.9848+36.6667L98.8687+36.6667L98.8687+32.5L100.384+32.5L100.384+31.6162C98.9949+31.6162+97.7323+31.6162+96.3434+31.6162L96.3434+32.5L97.8586+32.5L97.8586+36.6667L97.9848+36.6667ZM106.192+36.6667L106.192+31.7424L105.308+31.7424L105.308+36.6667L106.192+36.6667L106.192+36.6667ZM115.03+35.4041C114.652+35.7828+114.273+35.9091+113.768+35.9091C112.505+35.9091+112.126+35.0253+112+34.2677C112+33.3839+112.505+32.5+113.768+32.5C114.146+32.5+114.652+32.6263+114.904+33.0051L115.535+32.3738C115.03+31.8687+114.399+31.6162+113.768+31.6162C112+31.6162+111.116+32.8788+111.116+34.2677C111.116+35.5303+111.874+36.7929+113.768+36.7929C114.525+36.7929+115.157+36.5404+115.662+36.0354L115.03+35.4041L115.03+35.4041Z" opacity="1" fill="#000000"/>
<path d="M19.8283+11.4142C18.4394+8.6364+15.6616+7.8788+12.8838+7.8788C9.60102+7.8788+6.06566+9.394+6.06566+13.0556C6.06566+17.096+9.47476+17.9798+13.0101+18.4849C15.4091+18.7374+17.1768+19.3687+17.1768+21.1364C17.1768+23.0303+15.1566+23.7879+13.1364+23.7879C10.9899+23.7879+8.9697+22.9041+8.08587+21.0101L5.30809+22.399C6.57071+25.6818+9.47475+26.8182+13.0101+26.8182C16.9242+26.8182+20.4596+25.1768+20.4596+21.1364C20.4596+16.8434+17.0505+15.9596+13.2626+15.4546C11.1162+15.202+9.34849+14.8232+9.34849+13.1818C9.34849+11.9192+10.4849+10.7828+13.0101+10.7828C14.904+10.7828+16.6717+11.7929+17.1768+12.803L19.8283+11.4142L19.8283+11.4142ZM66.6717+8.5101L66.6717+18.7374C66.6717+21.7677+65.1566+23.6616+62.3788+23.6616C59.601+23.6616+57.8333+22.0202+57.8333+18.7374L57.8333+8.5101L54.4242+8.5101L54.4242+18.7374C54.4242+24.0404+58.0859+26.6919+62.3788+26.6919C66.798+26.6919+70.0808+24.0404+70.0808+18.7374L70.0808+8.5101L66.6717+8.5101L66.6717+8.5101ZM90.7879+19.495L82.0757+8.5101L79.298+8.5101L79.298+26.3131L82.7071+26.3131L82.7071+14.3182L92.0505+26.3131L92.0505+26.3131L94.0707+26.3131L94.0707+8.5101L90.6616+8.5101L90.6616+19.495L90.7879+19.495ZM109.854+8.5101C107.707+8.5101+105.056+8.5101+102.909+8.5101L102.909+26.3131C105.056+26.3131+107.707+26.3131+109.854+26.3131C116.04+26.3131+118.818+21.7677+118.692+17.2222C118.692+12.803+115.914+8.5101+109.854+8.5101L109.854+8.5101ZM106.192+11.6667L109.854+11.6667C113.768+11.6667+115.283+14.4444+115.409+17.2222C115.535+20.1263+113.894+23.0303+109.854+23.0303L106.192+23.0303L106.192+11.6667L106.192+11.6667Z" opacity="1" fill="#000000"/>
<path d="M28.1616+24.9242L28.1616+24.798L28.1616+15.4545L28.1616+15.4545L24.8788+15.4545L24.8788+15.4545L24.8788+24.798L24.8788+24.9242L28.1616+24.9242Z" opacity="1" fill="#00ccff"/>
<path d="M49.1212+29.7222L49.1212+29.596L49.1212+15.5808L49.1212+15.4545L45.8384+15.4545L45.8384+15.5808L45.8384+29.596L45.8384+29.7222L49.1212+29.7222Z" opacity="1" fill="#00ccff"/>
<path d="M43.9445+33.8889L43.9445+33.7626L43.9445+8.0051L43.9445+7.8788L40.6616+7.8788L40.6616+8.0051L40.6616+33.7626L40.6616+33.8889L43.9445+33.8889L43.9445+33.8889Z" opacity="1" fill="#00ccff"/>
<path d="M38.6414+36.7929C38.6414+36.7929+38.6414+36.6667+38.6414+36.5404L38.6414+3.7121L38.6414+3.5858L35.3586+3.5858L35.3586+3.7121L35.3586+36.5404C35.3586+36.6667+35.3586+36.6667+35.3586+36.7929L38.6414+36.7929L38.6414+36.7929Z" opacity="1" fill="#00ccff"/>
<path d="M33.4646+29.7222L33.4646+29.596L33.4646+10.7828L33.4646+10.6566L30.1818+10.6566L30.1818+10.7828L30.1818+29.596L30.1818+29.7222L33.4646+29.7222L33.4646+29.7222Z" opacity="1" fill="#00ccff"/>
</g>
</g>
</svg>
