<?xml version="1.0" encoding="UTF-8"?>
<!DOCTYPE svg PUBLIC "-//W3C//DTD SVG 1.1//EN"
  "http://www.w3.org/Graphics/SVG/1.1/DTD/svg11.dtd">
<!-- Created with Inkpad (http://www.taptrix.com/) --><svg xmlns:inkpad="http://taptrix.com/inkpad/svg_extensions" height="125pt" xmlns:xlink="http://www.w3.org/1999/xlink" xmlns="http://www.w3.org/2000/svg" width="125pt" version="1.1" viewBox="0,0,125,125">
<defs/>
<g id="Untitled" inkpad:layerName="Untitled">
<g opacity="1">
<path d="M54.4242+76.6162L54.4242+81.5404L57.9596+81.5404L57.9596+80.6566L55.4343+80.6566L55.4343+76.6162L54.4242+76.6162L54.4242+76.6162ZM65.0303+76.6162C63.2626+76.6162+62.505+77.8788+62.505+79.2677C62.505+80.5303+63.2626+81.7929+65.0303+81.7929C66.798+81.7929+67.5555+80.5303+67.5555+79.2677C67.5555+77.8788+66.6717+76.6162+65.0303+76.6162L65.0303+76.6162ZM65.0303+77.3737C66.1667+77.3737+66.6717+78.2576+66.6717+79.1414C66.6717+79.899+66.1667+80.7828+65.0303+80.7828C63.8939+80.7828+63.3889+79.899+63.3889+79.1414C63.3889+78.3838+63.7677+77.3737+65.0303+77.3737L65.0303+77.3737ZM76.6465+77.2475C76.1414+76.7424+75.5101+76.4899+74.7525+76.4899C72.9849+76.4899+72.101+77.7525+72.101+79.1414C72.101+80.4041+72.8586+81.6667+74.7525+81.6667C75.6364+81.6667+76.2677+81.2879+76.7727+80.7828L76.7727+78.6364L74.6263+78.6364L74.6263+79.5202L75.8889+79.5202L75.8889+80.4041C75.5101+80.6566+75.1313+80.7828+74.7525+80.7828C73.4899+80.7828+72.9848+79.899+72.9848+79.1414C72.9848+78.1313+73.6162+77.3738+74.7525+77.3738C75.1313+77.3738+75.6364+77.5+76.0152+77.8788L76.6465+77.2475L76.6465+77.2475ZM82.7071+81.6667L82.7071+76.7424L81.8232+76.7424L81.8232+81.6667L82.7071+81.6667L82.7071+81.6667ZM91.6717+77.5C91.2929+76.7424+90.5354+76.4899+89.7778+76.4899C88.8939+76.4899+87.8838+76.8687+87.8838+77.8788C87.8838+79.0151+88.7677+79.2677+89.7778+79.3939C90.4091+79.5202+90.9141+79.6465+90.9141+80.1515C90.9141+80.6566+90.4091+80.9091+89.7778+80.9091C89.1465+80.9091+88.6414+80.6566+88.3889+80.1515L87.6313+80.5303C88.0101+81.4141+88.7677+81.7929+89.7778+81.7929C90.9141+81.7929+91.9242+81.2879+91.9242+80.1515C91.9242+79.0151+90.9141+78.6364+89.904+78.5101C89.2727+78.3838+88.7677+78.2576+88.7677+77.8788C88.7677+77.5+89.1465+77.2475+89.7778+77.2475C90.2828+77.2475+90.7879+77.5+90.9141+77.7525L91.6717+77.5L91.6717+77.5ZM97.9848+81.6667L98.8687+81.6667L98.8687+77.5L100.384+77.5L100.384+76.6162C98.9949+76.6162+97.7323+76.6162+96.3434+76.6162L96.3434+77.5L97.8586+77.5L97.8586+81.6667L97.9848+81.6667ZM106.192+81.6667L106.192+76.7424L105.308+76.7424L105.308+81.6667L106.192+81.6667L106.192+81.6667ZM115.03+80.4041C114.652+80.7828+114.273+80.9091+113.768+80.9091C112.505+80.9091+112.126+80.0253+112+79.2677C112+78.3839+112.505+77.5+113.768+77.5C114.146+77.5+114.652+77.6263+114.904+78.0051L115.535+77.3738C115.03+76.8687+114.399+76.6162+113.768+76.6162C112+76.6162+111.116+77.8788+111.116+79.2677C111.116+80.5303+111.874+81.7929+113.768+81.7929C114.525+81.7929+115.157+81.5404+115.662+81.0354L115.03+80.4041L115.03+80.4041Z" opacity="1" fill="#000000"/>
<path d="M19.8283+56.4142C18.4394+53.6364+15.6616+52.8788+12.8838+52.8788C9.60102+52.8788+6.06566+54.394+6.06566+58.0556C6.06566+62.096+9.47476+62.9798+13.0101+63.4849C15.4091+63.7374+17.1768+64.3687+17.1768+66.1364C17.1768+68.0303+15.1566+68.7879+13.1364+68.7879C10.9899+68.7879+8.9697+67.9041+8.08587+66.0101L5.30809+67.399C6.57071+70.6818+9.47475+71.8182+13.0101+71.8182C16.9242+71.8182+20.4596+70.1768+20.4596+66.1364C20.4596+61.8434+17.0505+60.9596+13.2626+60.4546C11.1162+60.202+9.34849+59.8232+9.34849+58.1818C9.34849+56.9192+10.4849+55.7828+13.0101+55.7828C14.904+55.7828+16.6717+56.7929+17.1768+57.803L19.8283+56.4142L19.8283+56.4142ZM66.6717+53.5101L66.6717+63.7374C66.6717+66.7677+65.1566+68.6616+62.3788+68.6616C59.601+68.6616+57.8333+67.0202+57.8333+63.7374L57.8333+53.5101L54.4242+53.5101L54.4242+63.7374C54.4242+69.0404+58.0859+71.6919+62.3788+71.6919C66.798+71.6919+70.0808+69.0404+70.0808+63.7374L70.0808+53.5101L66.6717+53.5101L66.6717+53.5101ZM90.7879+64.495L82.0757+53.5101L79.298+53.5101L79.298+71.3131L82.7071+71.3131L82.7071+59.3182L92.0505+71.3131L92.0505+71.3131L94.0707+71.3131L94.0707+53.5101L90.6616+53.5101L90.6616+64.495L90.7879+64.495ZM109.854+53.5101C107.707+53.5101+105.056+53.5101+102.909+53.5101L102.909+71.3131C105.056+71.3131+107.707+71.3131+109.854+71.3131C116.04+71.3131+118.818+66.7677+118.692+62.2222C118.692+57.803+115.914+53.5101+109.854+53.5101L109.854+53.5101ZM106.192+56.6667L109.854+56.6667C113.768+56.6667+115.283+59.4444+115.409+62.2222C115.535+65.1263+113.894+68.0303+109.854+68.0303L106.192+68.0303L106.192+56.6667L106.192+56.6667Z" opacity="1" fill="#000000"/>
<path d="M28.1616+69.9242L28.1616+69.798L28.1616+60.4545L28.1616+60.4545L24.8788+60.4545L24.8788+60.4545L24.8788+69.798L24.8788+69.9242L28.1616+69.9242Z" opacity="1" fill="#00ccff"/>
<path d="M49.1212+74.7222L49.1212+74.596L49.1212+60.5808L49.1212+60.4545L45.8384+60.4545L45.8384+60.5808L45.8384+74.596L45.8384+74.7222L49.1212+74.7222Z" opacity="1" fill="#00ccff"/>
<path d="M43.9445+78.8889L43.9445+78.7626L43.9445+53.0051L43.9445+52.8788L40.6616+52.8788L40.6616+53.0051L40.6616+78.7626L40.6616+78.8889L43.9445+78.8889L43.9445+78.8889Z" opacity="1" fill="#00ccff"/>
<path d="M38.6414+81.7929C38.6414+81.7929+38.6414+81.6667+38.6414+81.5404L38.6414+48.7121L38.6414+48.5858L35.3586+48.5858L35.3586+48.7121L35.3586+81.5404C35.3586+81.6667+35.3586+81.6667+35.3586+81.7929L38.6414+81.7929L38.6414+81.7929Z" opacity="1" fill="#00ccff"/>
<path d="M33.4646+74.7222L33.4646+74.596L33.4646+55.7828L33.4646+55.6566L30.1818+55.6566L30.1818+55.7828L30.1818+74.596L30.1818+74.7222L33.4646+74.7222L33.4646+74.7222Z" opacity="1" fill="#00ccff"/>
</g>
</g>
</svg>
